<svg xmlns="http://www.w3.org/2000/svg" width="213.360mm" height="128.500mm" viewBox="0 0 213.360 128.500">
<defs><radialGradient id="knobMetal" cx="38%" cy="32%" r="75%"><stop offset="0%" stop-color="#2b2e3a"/><stop offset="55%" stop-color="#1b1d26"/><stop offset="100%" stop-color="#0f1017"/></radialGradient><radialGradient id="plate" cx="50%" cy="-5%" r="120%"><stop offset="0%" stop-color="#15161f"/><stop offset="100%" stop-color="#0d0e15"/></radialGradient><filter id="ledGlow" x="-140%" y="-140%" width="380%" height="380%"><feGaussianBlur stdDeviation="0.6" result="b"/><feMerge><feMergeNode in="b"/><feMergeNode in="SourceGraphic"/></feMerge></filter></defs>
<rect x="0" y="0" width="213.360" height="128.500" rx="2.5" fill="url(#plate)"/>
<line x1="84.180" y1="6" x2="84.180" y2="122.500" stroke="#20222c" stroke-width="0.4"/>
<line x1="129.180" y1="6" x2="129.180" y2="122.500" stroke="#20222c" stroke-width="0.4"/>
<circle cx="5.080" cy="3.000" r="1.6" fill="#2a2c38"/>
<circle cx="5.080" cy="125.500" r="1.6" fill="#2a2c38"/>
<circle cx="208.280" cy="3.000" r="1.6" fill="#2a2c38"/>
<circle cx="208.280" cy="125.500" r="1.6" fill="#2a2c38"/>
<circle cx="42.000" cy="37.000" r="18.400" fill="#0a0b10" stroke="#22252f" stroke-width="0.4"/>
<circle cx="42.000" cy="21.000" r="0.95" fill="#6de0c8" filter="url(#ledGlow)"/>
<circle cx="45.121" cy="21.307" r="0.7" fill="#1c4a43"/>
<circle cx="48.123" cy="22.218" r="0.7" fill="#1c4a43"/>
<circle cx="50.889" cy="23.696" r="0.95" fill="#6de0c8" filter="url(#ledGlow)"/>
<circle cx="53.314" cy="25.686" r="0.95" fill="#6de0c8" filter="url(#ledGlow)"/>
<circle cx="55.304" cy="28.111" r="0.7" fill="#1c4a43"/>
<circle cx="56.782" cy="30.877" r="0.7" fill="#1c4a43"/>
<circle cx="57.693" cy="33.879" r="0.7" fill="#1c4a43"/>
<circle cx="58.000" cy="37.000" r="0.7" fill="#1c4a43"/>
<circle cx="57.693" cy="40.121" r="0.95" fill="#6de0c8" filter="url(#ledGlow)"/>
<circle cx="56.782" cy="43.123" r="0.7" fill="#1c4a43"/>
<circle cx="55.304" cy="45.889" r="0.7" fill="#1c4a43"/>
<circle cx="53.314" cy="48.314" r="0.7" fill="#1c4a43"/>
<circle cx="50.889" cy="50.304" r="0.7" fill="#1c4a43"/>
<circle cx="48.123" cy="51.782" r="0.95" fill="#6de0c8" filter="url(#ledGlow)"/>
<circle cx="45.121" cy="52.693" r="0.95" fill="#6de0c8" filter="url(#ledGlow)"/>
<circle cx="42.000" cy="53.000" r="0.7" fill="#1c4a43"/>
<circle cx="38.879" cy="52.693" r="0.7" fill="#1c4a43"/>
<circle cx="35.877" cy="51.782" r="0.7" fill="#1c4a43"/>
<circle cx="33.111" cy="50.304" r="0.7" fill="#1c4a43"/>
<circle cx="30.686" cy="48.314" r="0.7" fill="#1c4a43"/>
<circle cx="28.696" cy="45.889" r="0.7" fill="#1c4a43"/>
<circle cx="27.218" cy="43.123" r="0.95" fill="#6de0c8" filter="url(#ledGlow)"/>
<circle cx="26.307" cy="40.121" r="0.7" fill="#1c4a43"/>
<circle cx="26.000" cy="37.000" r="0.7" fill="#1c4a43"/>
<circle cx="26.307" cy="33.879" r="0.7" fill="#1c4a43"/>
<circle cx="27.218" cy="30.877" r="0.7" fill="#1c4a43"/>
<circle cx="28.696" cy="28.111" r="0.95" fill="#6de0c8" filter="url(#ledGlow)"/>
<circle cx="30.686" cy="25.686" r="0.7" fill="#1c4a43"/>
<circle cx="33.111" cy="23.696" r="0.7" fill="#1c4a43"/>
<circle cx="35.877" cy="22.218" r="0.7" fill="#1c4a43"/>
<circle cx="38.879" cy="21.307" r="0.7" fill="#1c4a43"/>
<circle cx="171.360" cy="37.000" r="18.400" fill="#0a0b10" stroke="#22252f" stroke-width="0.4"/>
<circle cx="171.360" cy="21.000" r="0.95" fill="#6de0c8" filter="url(#ledGlow)"/>
<circle cx="174.481" cy="21.307" r="0.7" fill="#1c4a43"/>
<circle cx="177.483" cy="22.218" r="0.7" fill="#1c4a43"/>
<circle cx="180.249" cy="23.696" r="0.7" fill="#1c4a43"/>
<circle cx="182.674" cy="25.686" r="0.7" fill="#1c4a43"/>
<circle cx="184.664" cy="28.111" r="0.95" fill="#6de0c8" filter="url(#ledGlow)"/>
<circle cx="186.142" cy="30.877" r="0.7" fill="#1c4a43"/>
<circle cx="187.053" cy="33.879" r="0.7" fill="#1c4a43"/>
<circle cx="187.360" cy="37.000" r="0.7" fill="#1c4a43"/>
<circle cx="187.053" cy="40.121" r="0.7" fill="#1c4a43"/>
<circle cx="186.142" cy="43.123" r="0.95" fill="#6de0c8" filter="url(#ledGlow)"/>
<circle cx="184.664" cy="45.889" r="0.95" fill="#6de0c8" filter="url(#ledGlow)"/>
<circle cx="182.674" cy="48.314" r="0.7" fill="#1c4a43"/>
<circle cx="180.249" cy="50.304" r="0.7" fill="#1c4a43"/>
<circle cx="177.483" cy="51.782" r="0.7" fill="#1c4a43"/>
<circle cx="174.481" cy="52.693" r="0.7" fill="#1c4a43"/>
<circle cx="171.360" cy="53.000" r="0.7" fill="#1c4a43"/>
<circle cx="168.239" cy="52.693" r="0.7" fill="#1c4a43"/>
<circle cx="165.237" cy="51.782" r="0.95" fill="#6de0c8" filter="url(#ledGlow)"/>
<circle cx="162.471" cy="50.304" r="0.7" fill="#1c4a43"/>
<circle cx="160.046" cy="48.314" r="0.7" fill="#1c4a43"/>
<circle cx="158.056" cy="45.889" r="0.7" fill="#1c4a43"/>
<circle cx="156.578" cy="43.123" r="0.7" fill="#1c4a43"/>
<circle cx="155.667" cy="40.121" r="0.95" fill="#6de0c8" filter="url(#ledGlow)"/>
<circle cx="155.360" cy="37.000" r="0.95" fill="#6de0c8" filter="url(#ledGlow)"/>
<circle cx="155.667" cy="33.879" r="0.7" fill="#1c4a43"/>
<circle cx="156.578" cy="30.877" r="0.7" fill="#1c4a43"/>
<circle cx="158.056" cy="28.111" r="0.7" fill="#1c4a43"/>
<circle cx="160.046" cy="25.686" r="0.7" fill="#1c4a43"/>
<circle cx="162.471" cy="23.696" r="0.95" fill="#6de0c8" filter="url(#ledGlow)"/>
<circle cx="165.237" cy="22.218" r="0.7" fill="#1c4a43"/>
<circle cx="168.239" cy="21.307" r="0.7" fill="#1c4a43"/>
<rect x="8.000" y="94.0" width="76.000" height="11.0" rx="1.5" fill="#0c0d13" stroke="#20222c" stroke-width="0.3"/>
<rect x="129.360" y="94.0" width="76.000" height="11.0" rx="1.5" fill="#0c0d13" stroke="#20222c" stroke-width="0.3"/>
<rect x="85.680" y="10.0" width="42.0" height="98.0" rx="2" fill="#0c0d13" stroke="#20222c" stroke-width="0.3"/>
<text x="42.000" y="38.000" fill="#3a5d55" text-anchor="middle" font-family="sans-serif" font-size="5" font-weight="bold">A</text>
<text x="171.360" y="38.000" fill="#3a5d55" text-anchor="middle" font-family="sans-serif" font-size="5" font-weight="bold">B</text>
<text x="106.680" y="57.000" fill="#6de0c8" text-anchor="middle" font-family="sans-serif" font-size="2.4">ROOM</text>
<text x="106.680" y="85.000" fill="#6de0c8" text-anchor="middle" font-family="sans-serif" font-size="2.4">CLOCK / MIX</text>
<text x="106.680" y="126.000" fill="#6de0c8" text-anchor="middle" font-family="monospace" font-size="4.5" font-weight="bold">spotymod</text>
<circle cx="42.000" cy="10.500" r="4.200" fill="url(#knobMetal)" stroke="#6de0c8" stroke-width="0.42"/>
<line x1="42.000" y1="10.500" x2="42.000" y2="7.000" stroke="#6de0c8" stroke-width="0.5" stroke-linecap="round"/>
<text x="42.000" y="17.200" fill="#c9ccd8" text-anchor="middle" font-family="sans-serif" font-size="2.0">RATE</text>
<circle cx="60.738" cy="18.262" r="4.200" fill="url(#knobMetal)" stroke="#6de0c8" stroke-width="0.42"/>
<line x1="60.738" y1="18.262" x2="60.738" y2="14.762" stroke="#6de0c8" stroke-width="0.5" stroke-linecap="round"/>
<text x="60.738" y="24.962" fill="#c9ccd8" text-anchor="middle" font-family="sans-serif" font-size="2.0">SHAPE</text>
<circle cx="68.500" cy="37.000" r="4.200" fill="url(#knobMetal)" stroke="#6de0c8" stroke-width="0.42"/>
<line x1="68.500" y1="37.000" x2="68.500" y2="33.500" stroke="#6de0c8" stroke-width="0.5" stroke-linecap="round"/>
<text x="68.500" y="43.700" fill="#c9ccd8" text-anchor="middle" font-family="sans-serif" font-size="2.0">PROB</text>
<circle cx="60.738" cy="55.738" r="4.200" fill="url(#knobMetal)" stroke="#6de0c8" stroke-width="0.42"/>
<line x1="60.738" y1="55.738" x2="60.738" y2="52.238" stroke="#6de0c8" stroke-width="0.5" stroke-linecap="round"/>
<text x="60.738" y="62.438" fill="#c9ccd8" text-anchor="middle" font-family="sans-serif" font-size="2.0">SMTH</text>
<circle cx="42.000" cy="63.500" r="4.200" fill="url(#knobMetal)" stroke="#6de0c8" stroke-width="0.42"/>
<line x1="42.000" y1="63.500" x2="42.000" y2="60.000" stroke="#6de0c8" stroke-width="0.5" stroke-linecap="round"/>
<text x="42.000" y="70.200" fill="#c9ccd8" text-anchor="middle" font-family="sans-serif" font-size="2.0">RANGE</text>
<circle cx="23.262" cy="55.738" r="4.200" fill="url(#knobMetal)" stroke="#6de0c8" stroke-width="0.42"/>
<line x1="23.262" y1="55.738" x2="23.262" y2="52.238" stroke="#6de0c8" stroke-width="0.5" stroke-linecap="round"/>
<text x="23.262" y="62.438" fill="#c9ccd8" text-anchor="middle" font-family="sans-serif" font-size="2.0">ENTR</text>
<circle cx="15.500" cy="37.000" r="4.200" fill="url(#knobMetal)" stroke="#6de0c8" stroke-width="0.42"/>
<line x1="15.500" y1="37.000" x2="15.500" y2="33.500" stroke="#6de0c8" stroke-width="0.5" stroke-linecap="round"/>
<text x="15.500" y="43.700" fill="#c9ccd8" text-anchor="middle" font-family="sans-serif" font-size="2.0">DEPTH</text>
<circle cx="23.262" cy="18.262" r="4.200" fill="url(#knobMetal)" stroke="#6de0c8" stroke-width="0.42"/>
<line x1="23.262" y1="18.262" x2="23.262" y2="14.762" stroke="#6de0c8" stroke-width="0.5" stroke-linecap="round"/>
<text x="23.262" y="24.962" fill="#c9ccd8" text-anchor="middle" font-family="sans-serif" font-size="2.0">TUNE</text>
<circle cx="16.000" cy="74.000" r="3.000" fill="url(#knobMetal)" stroke="#4a8d80" stroke-width="0.34"/>
<line x1="16.000" y1="74.000" x2="16.000" y2="71.700" stroke="#8fbfb6" stroke-width="0.5" stroke-linecap="round"/>
<text x="16.000" y="79.500" fill="#c9ccd8" text-anchor="middle" font-family="sans-serif" font-size="2.0">ATK</text>
<circle cx="29.000" cy="74.000" r="3.000" fill="url(#knobMetal)" stroke="#4a8d80" stroke-width="0.34"/>
<line x1="29.000" y1="74.000" x2="29.000" y2="71.700" stroke="#8fbfb6" stroke-width="0.5" stroke-linecap="round"/>
<text x="29.000" y="79.500" fill="#c9ccd8" text-anchor="middle" font-family="sans-serif" font-size="2.0">DEC</text>
<circle cx="42.000" cy="74.000" r="3.000" fill="url(#knobMetal)" stroke="#4a8d80" stroke-width="0.34"/>
<line x1="42.000" y1="74.000" x2="42.000" y2="71.700" stroke="#8fbfb6" stroke-width="0.5" stroke-linecap="round"/>
<text x="42.000" y="79.500" fill="#c9ccd8" text-anchor="middle" font-family="sans-serif" font-size="2.0">RES</text>
<circle cx="55.000" cy="74.000" r="3.000" fill="url(#knobMetal)" stroke="#4a8d80" stroke-width="0.34"/>
<line x1="55.000" y1="74.000" x2="55.000" y2="71.700" stroke="#8fbfb6" stroke-width="0.5" stroke-linecap="round"/>
<text x="55.000" y="79.500" fill="#c9ccd8" text-anchor="middle" font-family="sans-serif" font-size="2.0">SUB</text>
<circle cx="68.000" cy="74.000" r="3.000" fill="url(#knobMetal)" stroke="#4a8d80" stroke-width="0.34"/>
<line x1="68.000" y1="74.000" x2="68.000" y2="71.700" stroke="#8fbfb6" stroke-width="0.5" stroke-linecap="round"/>
<text x="68.000" y="79.500" fill="#c9ccd8" text-anchor="middle" font-family="sans-serif" font-size="2.0">DTUN</text>
<circle cx="22.000" cy="86.000" r="3.000" fill="url(#knobMetal)" stroke="#4a8d80" stroke-width="0.34"/>
<line x1="22.000" y1="86.000" x2="22.000" y2="83.700" stroke="#8fbfb6" stroke-width="0.5" stroke-linecap="round"/>
<text x="22.000" y="91.500" fill="#c9ccd8" text-anchor="middle" font-family="sans-serif" font-size="2.0">FLUX</text>
<circle cx="35.000" cy="86.000" r="3.000" fill="url(#knobMetal)" stroke="#4a8d80" stroke-width="0.34"/>
<line x1="35.000" y1="86.000" x2="35.000" y2="83.700" stroke="#8fbfb6" stroke-width="0.5" stroke-linecap="round"/>
<text x="35.000" y="91.500" fill="#c9ccd8" text-anchor="middle" font-family="sans-serif" font-size="2.0">GRIT</text>
<circle cx="48.000" cy="86.000" r="3.000" fill="url(#knobMetal)" stroke="#4a8d80" stroke-width="0.34"/>
<line x1="48.000" y1="86.000" x2="48.000" y2="83.700" stroke="#8fbfb6" stroke-width="0.5" stroke-linecap="round"/>
<text x="48.000" y="91.500" fill="#c9ccd8" text-anchor="middle" font-family="sans-serif" font-size="2.0">COMP</text>
<circle cx="61.000" cy="86.000" r="3.000" fill="url(#knobMetal)" stroke="#4a8d80" stroke-width="0.34"/>
<line x1="61.000" y1="86.000" x2="61.000" y2="83.700" stroke="#8fbfb6" stroke-width="0.5" stroke-linecap="round"/>
<text x="61.000" y="91.500" fill="#c9ccd8" text-anchor="middle" font-family="sans-serif" font-size="2.0">STPS</text>
<rect x="11.600" y="96.600" width="2.8" height="4.8" rx="0.6" fill="#20222c" stroke="#5a5d6d" stroke-width="0.3"/>
<text x="13.000" y="103.700" fill="#c9ccd8" text-anchor="middle" font-family="sans-serif" font-size="2.0">SYNC</text>
<rect x="20.800" y="96.300" width="5.400" height="5.400" rx="1.0" fill="#1a1c24" stroke="#6de0c8" stroke-width="0.3"/>
<text x="23.500" y="104.200" fill="#c9ccd8" text-anchor="middle" font-family="sans-serif" font-size="2.0">ENG</text>
<rect x="31.300" y="96.300" width="5.400" height="5.400" rx="1.0" fill="#1a1c24" stroke="#6de0c8" stroke-width="0.3"/>
<text x="34.000" y="104.200" fill="#c9ccd8" text-anchor="middle" font-family="sans-serif" font-size="2.0">GRIT</text>
<rect x="41.800" y="96.300" width="5.400" height="5.400" rx="1.0" fill="#1a1c24" stroke="#6de0c8" stroke-width="0.3"/>
<text x="44.500" y="104.200" fill="#c9ccd8" text-anchor="middle" font-family="sans-serif" font-size="2.0">STEP</text>
<rect x="52.300" y="96.300" width="5.400" height="5.400" rx="1.0" fill="#1a1c24" stroke="#6de0c8" stroke-width="0.3"/>
<text x="55.000" y="104.200" fill="#c9ccd8" text-anchor="middle" font-family="sans-serif" font-size="2.0">RPLY</text>
<rect x="62.800" y="96.300" width="5.400" height="5.400" rx="1.0" fill="#1a1c24" stroke="#6de0c8" stroke-width="0.3"/>
<text x="65.500" y="104.200" fill="#c9ccd8" text-anchor="middle" font-family="sans-serif" font-size="2.0">CAP</text>
<rect x="73.300" y="96.300" width="5.400" height="5.400" rx="1.0" fill="#1a1c24" stroke="#6de0c8" stroke-width="0.3"/>
<text x="76.000" y="104.200" fill="#c9ccd8" text-anchor="middle" font-family="sans-serif" font-size="2.0">TRIG</text>
<circle cx="171.360" cy="10.500" r="4.200" fill="url(#knobMetal)" stroke="#6de0c8" stroke-width="0.42"/>
<line x1="171.360" y1="10.500" x2="171.360" y2="7.000" stroke="#6de0c8" stroke-width="0.5" stroke-linecap="round"/>
<text x="171.360" y="17.200" fill="#c9ccd8" text-anchor="middle" font-family="sans-serif" font-size="2.0">RATE</text>
<circle cx="152.622" cy="18.262" r="4.200" fill="url(#knobMetal)" stroke="#6de0c8" stroke-width="0.42"/>
<line x1="152.622" y1="18.262" x2="152.622" y2="14.762" stroke="#6de0c8" stroke-width="0.5" stroke-linecap="round"/>
<text x="152.622" y="24.962" fill="#c9ccd8" text-anchor="middle" font-family="sans-serif" font-size="2.0">SHAPE</text>
<circle cx="144.860" cy="37.000" r="4.200" fill="url(#knobMetal)" stroke="#6de0c8" stroke-width="0.42"/>
<line x1="144.860" y1="37.000" x2="144.860" y2="33.500" stroke="#6de0c8" stroke-width="0.5" stroke-linecap="round"/>
<text x="144.860" y="43.700" fill="#c9ccd8" text-anchor="middle" font-family="sans-serif" font-size="2.0">PROB</text>
<circle cx="152.622" cy="55.738" r="4.200" fill="url(#knobMetal)" stroke="#6de0c8" stroke-width="0.42"/>
<line x1="152.622" y1="55.738" x2="152.622" y2="52.238" stroke="#6de0c8" stroke-width="0.5" stroke-linecap="round"/>
<text x="152.622" y="62.438" fill="#c9ccd8" text-anchor="middle" font-family="sans-serif" font-size="2.0">SMTH</text>
<circle cx="171.360" cy="63.500" r="4.200" fill="url(#knobMetal)" stroke="#6de0c8" stroke-width="0.42"/>
<line x1="171.360" y1="63.500" x2="171.360" y2="60.000" stroke="#6de0c8" stroke-width="0.5" stroke-linecap="round"/>
<text x="171.360" y="70.200" fill="#c9ccd8" text-anchor="middle" font-family="sans-serif" font-size="2.0">RANGE</text>
<circle cx="190.098" cy="55.738" r="4.200" fill="url(#knobMetal)" stroke="#6de0c8" stroke-width="0.42"/>
<line x1="190.098" y1="55.738" x2="190.098" y2="52.238" stroke="#6de0c8" stroke-width="0.5" stroke-linecap="round"/>
<text x="190.098" y="62.438" fill="#c9ccd8" text-anchor="middle" font-family="sans-serif" font-size="2.0">ENTR</text>
<circle cx="197.860" cy="37.000" r="4.200" fill="url(#knobMetal)" stroke="#6de0c8" stroke-width="0.42"/>
<line x1="197.860" y1="37.000" x2="197.860" y2="33.500" stroke="#6de0c8" stroke-width="0.5" stroke-linecap="round"/>
<text x="197.860" y="43.700" fill="#c9ccd8" text-anchor="middle" font-family="sans-serif" font-size="2.0">DEPTH</text>
<circle cx="190.098" cy="18.262" r="4.200" fill="url(#knobMetal)" stroke="#6de0c8" stroke-width="0.42"/>
<line x1="190.098" y1="18.262" x2="190.098" y2="14.762" stroke="#6de0c8" stroke-width="0.5" stroke-linecap="round"/>
<text x="190.098" y="24.962" fill="#c9ccd8" text-anchor="middle" font-family="sans-serif" font-size="2.0">TUNE</text>
<circle cx="197.360" cy="74.000" r="3.000" fill="url(#knobMetal)" stroke="#4a8d80" stroke-width="0.34"/>
<line x1="197.360" y1="74.000" x2="197.360" y2="71.700" stroke="#8fbfb6" stroke-width="0.5" stroke-linecap="round"/>
<text x="197.360" y="79.500" fill="#c9ccd8" text-anchor="middle" font-family="sans-serif" font-size="2.0">ATK</text>
<circle cx="184.360" cy="74.000" r="3.000" fill="url(#knobMetal)" stroke="#4a8d80" stroke-width="0.34"/>
<line x1="184.360" y1="74.000" x2="184.360" y2="71.700" stroke="#8fbfb6" stroke-width="0.5" stroke-linecap="round"/>
<text x="184.360" y="79.500" fill="#c9ccd8" text-anchor="middle" font-family="sans-serif" font-size="2.0">DEC</text>
<circle cx="171.360" cy="74.000" r="3.000" fill="url(#knobMetal)" stroke="#4a8d80" stroke-width="0.34"/>
<line x1="171.360" y1="74.000" x2="171.360" y2="71.700" stroke="#8fbfb6" stroke-width="0.5" stroke-linecap="round"/>
<text x="171.360" y="79.500" fill="#c9ccd8" text-anchor="middle" font-family="sans-serif" font-size="2.0">RES</text>
<circle cx="158.360" cy="74.000" r="3.000" fill="url(#knobMetal)" stroke="#4a8d80" stroke-width="0.34"/>
<line x1="158.360" y1="74.000" x2="158.360" y2="71.700" stroke="#8fbfb6" stroke-width="0.5" stroke-linecap="round"/>
<text x="158.360" y="79.500" fill="#c9ccd8" text-anchor="middle" font-family="sans-serif" font-size="2.0">SUB</text>
<circle cx="145.360" cy="74.000" r="3.000" fill="url(#knobMetal)" stroke="#4a8d80" stroke-width="0.34"/>
<line x1="145.360" y1="74.000" x2="145.360" y2="71.700" stroke="#8fbfb6" stroke-width="0.5" stroke-linecap="round"/>
<text x="145.360" y="79.500" fill="#c9ccd8" text-anchor="middle" font-family="sans-serif" font-size="2.0">DTUN</text>
<circle cx="191.360" cy="86.000" r="3.000" fill="url(#knobMetal)" stroke="#4a8d80" stroke-width="0.34"/>
<line x1="191.360" y1="86.000" x2="191.360" y2="83.700" stroke="#8fbfb6" stroke-width="0.5" stroke-linecap="round"/>
<text x="191.360" y="91.500" fill="#c9ccd8" text-anchor="middle" font-family="sans-serif" font-size="2.0">FLUX</text>
<circle cx="178.360" cy="86.000" r="3.000" fill="url(#knobMetal)" stroke="#4a8d80" stroke-width="0.34"/>
<line x1="178.360" y1="86.000" x2="178.360" y2="83.700" stroke="#8fbfb6" stroke-width="0.5" stroke-linecap="round"/>
<text x="178.360" y="91.500" fill="#c9ccd8" text-anchor="middle" font-family="sans-serif" font-size="2.0">GRIT</text>
<circle cx="165.360" cy="86.000" r="3.000" fill="url(#knobMetal)" stroke="#4a8d80" stroke-width="0.34"/>
<line x1="165.360" y1="86.000" x2="165.360" y2="83.700" stroke="#8fbfb6" stroke-width="0.5" stroke-linecap="round"/>
<text x="165.360" y="91.500" fill="#c9ccd8" text-anchor="middle" font-family="sans-serif" font-size="2.0">COMP</text>
<circle cx="152.360" cy="86.000" r="3.000" fill="url(#knobMetal)" stroke="#4a8d80" stroke-width="0.34"/>
<line x1="152.360" y1="86.000" x2="152.360" y2="83.700" stroke="#8fbfb6" stroke-width="0.5" stroke-linecap="round"/>
<text x="152.360" y="91.500" fill="#c9ccd8" text-anchor="middle" font-family="sans-serif" font-size="2.0">STPS</text>
<rect x="198.960" y="96.600" width="2.8" height="4.8" rx="0.6" fill="#20222c" stroke="#5a5d6d" stroke-width="0.3"/>
<text x="200.360" y="103.700" fill="#c9ccd8" text-anchor="middle" font-family="sans-serif" font-size="2.0">SYNC</text>
<rect x="187.160" y="96.300" width="5.400" height="5.400" rx="1.0" fill="#1a1c24" stroke="#6de0c8" stroke-width="0.3"/>
<text x="189.860" y="104.200" fill="#c9ccd8" text-anchor="middle" font-family="sans-serif" font-size="2.0">ENG</text>
<rect x="176.660" y="96.300" width="5.400" height="5.400" rx="1.0" fill="#1a1c24" stroke="#6de0c8" stroke-width="0.3"/>
<text x="179.360" y="104.200" fill="#c9ccd8" text-anchor="middle" font-family="sans-serif" font-size="2.0">GRIT</text>
<rect x="166.160" y="96.300" width="5.400" height="5.400" rx="1.0" fill="#1a1c24" stroke="#6de0c8" stroke-width="0.3"/>
<text x="168.860" y="104.200" fill="#c9ccd8" text-anchor="middle" font-family="sans-serif" font-size="2.0">STEP</text>
<rect x="155.660" y="96.300" width="5.400" height="5.400" rx="1.0" fill="#1a1c24" stroke="#6de0c8" stroke-width="0.3"/>
<text x="158.360" y="104.200" fill="#c9ccd8" text-anchor="middle" font-family="sans-serif" font-size="2.0">RPLY</text>
<rect x="145.160" y="96.300" width="5.400" height="5.400" rx="1.0" fill="#1a1c24" stroke="#6de0c8" stroke-width="0.3"/>
<text x="147.860" y="104.200" fill="#c9ccd8" text-anchor="middle" font-family="sans-serif" font-size="2.0">CAP</text>
<rect x="134.660" y="96.300" width="5.400" height="5.400" rx="1.0" fill="#1a1c24" stroke="#6de0c8" stroke-width="0.3"/>
<text x="137.360" y="104.200" fill="#c9ccd8" text-anchor="middle" font-family="sans-serif" font-size="2.0">TRIG</text>
<circle cx="106.680" cy="16.000" r="4.200" fill="url(#knobMetal)" stroke="#6de0c8" stroke-width="0.42"/>
<line x1="106.680" y1="16.000" x2="106.680" y2="12.500" stroke="#6de0c8" stroke-width="0.5" stroke-linecap="round"/>
<text x="106.680" y="22.700" fill="#c9ccd8" text-anchor="middle" font-family="sans-serif" font-size="2.0">MORPH</text>
<circle cx="96.180" cy="32.000" r="3.000" fill="url(#knobMetal)" stroke="#4a8d80" stroke-width="0.34"/>
<line x1="96.180" y1="32.000" x2="96.180" y2="29.700" stroke="#8fbfb6" stroke-width="0.5" stroke-linecap="round"/>
<text x="96.180" y="37.500" fill="#c9ccd8" text-anchor="middle" font-family="sans-serif" font-size="2.0">COUPL</text>
<circle cx="106.680" cy="32.000" r="3.000" fill="url(#knobMetal)" stroke="#4a8d80" stroke-width="0.34"/>
<line x1="106.680" y1="32.000" x2="106.680" y2="29.700" stroke="#8fbfb6" stroke-width="0.5" stroke-linecap="round"/>
<text x="106.680" y="37.500" fill="#c9ccd8" text-anchor="middle" font-family="sans-serif" font-size="2.0">SCALE</text>
<circle cx="117.180" cy="32.000" r="3.000" fill="url(#knobMetal)" stroke="#4a8d80" stroke-width="0.34"/>
<line x1="117.180" y1="32.000" x2="117.180" y2="29.700" stroke="#8fbfb6" stroke-width="0.5" stroke-linecap="round"/>
<text x="117.180" y="37.500" fill="#c9ccd8" text-anchor="middle" font-family="sans-serif" font-size="2.0">DRIFT</text>
<rect x="93.480" y="42.300" width="5.400" height="5.400" rx="1.0" fill="#1a1c24" stroke="#6de0c8" stroke-width="0.3"/>
<text x="96.180" y="50.200" fill="#c9ccd8" text-anchor="middle" font-family="sans-serif" font-size="2.0">SPOT</text>
<circle cx="106.680" cy="45.000" r="3.000" fill="url(#knobMetal)" stroke="#4a8d80" stroke-width="0.34"/>
<line x1="106.680" y1="45.000" x2="106.680" y2="42.700" stroke="#8fbfb6" stroke-width="0.5" stroke-linecap="round"/>
<text x="106.680" y="50.500" fill="#c9ccd8" text-anchor="middle" font-family="sans-serif" font-size="2.0">DRIVE</text>
<rect x="114.480" y="42.300" width="5.400" height="5.400" rx="1.0" fill="#1a1c24" stroke="#6de0c8" stroke-width="0.3"/>
<text x="117.180" y="50.200" fill="#c9ccd8" text-anchor="middle" font-family="sans-serif" font-size="2.0">SETL</text>
<circle cx="96.180" cy="60.000" r="3.000" fill="url(#knobMetal)" stroke="#4a8d80" stroke-width="0.34"/>
<line x1="96.180" y1="60.000" x2="96.180" y2="57.700" stroke="#8fbfb6" stroke-width="0.5" stroke-linecap="round"/>
<text x="96.180" y="65.500" fill="#c9ccd8" text-anchor="middle" font-family="sans-serif" font-size="2.0">SIZE</text>
<circle cx="117.180" cy="60.000" r="3.000" fill="url(#knobMetal)" stroke="#4a8d80" stroke-width="0.34"/>
<line x1="117.180" y1="60.000" x2="117.180" y2="57.700" stroke="#8fbfb6" stroke-width="0.5" stroke-linecap="round"/>
<text x="117.180" y="65.500" fill="#c9ccd8" text-anchor="middle" font-family="sans-serif" font-size="2.0">DECAY</text>
<circle cx="96.180" cy="72.000" r="3.000" fill="url(#knobMetal)" stroke="#4a8d80" stroke-width="0.34"/>
<line x1="96.180" y1="72.000" x2="96.180" y2="69.700" stroke="#8fbfb6" stroke-width="0.5" stroke-linecap="round"/>
<text x="96.180" y="77.500" fill="#c9ccd8" text-anchor="middle" font-family="sans-serif" font-size="2.0">TONE</text>
<circle cx="117.180" cy="72.000" r="3.000" fill="url(#knobMetal)" stroke="#4a8d80" stroke-width="0.34"/>
<line x1="117.180" y1="72.000" x2="117.180" y2="69.700" stroke="#8fbfb6" stroke-width="0.5" stroke-linecap="round"/>
<text x="117.180" y="77.500" fill="#c9ccd8" text-anchor="middle" font-family="sans-serif" font-size="2.0">DEPTH</text>
<circle cx="106.680" cy="66.000" r="3.000" fill="url(#knobMetal)" stroke="#4a8d80" stroke-width="0.34"/>
<line x1="106.680" y1="66.000" x2="106.680" y2="63.700" stroke="#8fbfb6" stroke-width="0.5" stroke-linecap="round"/>
<text x="106.680" y="71.500" fill="#c9ccd8" text-anchor="middle" font-family="sans-serif" font-size="2.0">TEMPO</text>
<circle cx="96.180" cy="88.000" r="4.200" fill="#08080d" stroke="#5a5d6d" stroke-width="0.4"/>
<circle cx="96.180" cy="88.000" r="1.3" fill="#2a2c38"/>
<text x="96.180" y="94.700" fill="#c9ccd8" text-anchor="middle" font-family="sans-serif" font-size="2.0">IN L</text>
<circle cx="117.180" cy="88.000" r="4.200" fill="#08080d" stroke="#5a5d6d" stroke-width="0.4"/>
<circle cx="117.180" cy="88.000" r="1.3" fill="#2a2c38"/>
<text x="117.180" y="94.700" fill="#c9ccd8" text-anchor="middle" font-family="sans-serif" font-size="2.0">IN R</text>
<circle cx="106.680" cy="88.000" r="4.200" fill="#08080d" stroke="#5a5d6d" stroke-width="0.4"/>
<circle cx="106.680" cy="88.000" r="1.3" fill="#2a2c38"/>
<text x="106.680" y="94.700" fill="#c9ccd8" text-anchor="middle" font-family="sans-serif" font-size="2.0">CLK</text>
<circle cx="106.680" cy="101.000" r="4.200" fill="#08080d" stroke="#5a5d6d" stroke-width="0.4"/>
<circle cx="106.680" cy="101.000" r="1.3" fill="#2a2c38"/>
<text x="106.680" y="107.700" fill="#c9ccd8" text-anchor="middle" font-family="sans-serif" font-size="2.0">RST</text>
<circle cx="96.180" cy="101.000" r="4.200" fill="#08080d" stroke="#5a5d6d" stroke-width="0.4"/>
<circle cx="96.180" cy="101.000" r="1.3" fill="#2a2c38"/>
<text x="96.180" y="107.700" fill="#c9ccd8" text-anchor="middle" font-family="sans-serif" font-size="2.0">OUT L</text>
<circle cx="117.180" cy="101.000" r="4.200" fill="#08080d" stroke="#5a5d6d" stroke-width="0.4"/>
<circle cx="117.180" cy="101.000" r="1.3" fill="#2a2c38"/>
<text x="117.180" y="107.700" fill="#c9ccd8" text-anchor="middle" font-family="sans-serif" font-size="2.0">OUT R</text>
<circle cx="20.000" cy="117.000" r="4.200" fill="#08080d" stroke="#5a5d6d" stroke-width="0.4"/>
<circle cx="20.000" cy="117.000" r="1.3" fill="#2a2c38"/>
<text x="20.000" y="123.700" fill="#c9ccd8" text-anchor="middle" font-family="sans-serif" font-size="2.0">PIT</text>
<circle cx="33.000" cy="117.000" r="4.200" fill="#08080d" stroke="#5a5d6d" stroke-width="0.4"/>
<circle cx="33.000" cy="117.000" r="1.3" fill="#2a2c38"/>
<text x="33.000" y="123.700" fill="#c9ccd8" text-anchor="middle" font-family="sans-serif" font-size="2.0">GATE</text>
<circle cx="193.360" cy="117.000" r="4.200" fill="#08080d" stroke="#5a5d6d" stroke-width="0.4"/>
<circle cx="193.360" cy="117.000" r="1.3" fill="#2a2c38"/>
<text x="193.360" y="123.700" fill="#c9ccd8" text-anchor="middle" font-family="sans-serif" font-size="2.0">PIT</text>
<circle cx="180.360" cy="117.000" r="4.200" fill="#08080d" stroke="#5a5d6d" stroke-width="0.4"/>
<circle cx="180.360" cy="117.000" r="1.3" fill="#2a2c38"/>
<text x="180.360" y="123.700" fill="#c9ccd8" text-anchor="middle" font-family="sans-serif" font-size="2.0">GATE</text>
<circle cx="42.000" cy="37.000" r="1.700" fill="#ffb454" opacity="0.85" filter="url(#ledGlow)"/>
<circle cx="171.360" cy="37.000" r="1.700" fill="#ffb454" opacity="0.85" filter="url(#ledGlow)"/>
</svg>